<?xml version="1.0" ?><svg width="24px" height="24px" viewBox="0 0 24 24" xmlns="http://www.w3.org/2000/svg"><defs><style>.cls-1{fill:#f19b5f;}.cls-2{fill:#ffce69;}.cls-3{fill:#6c6b75;}.cls-4{fill:#6c2e7c;}</style></defs><g id="Icons"><rect class="cls-1" height="14" rx="3" width="18" x="3" y="9"/><rect class="cls-2" height="9" rx="3" width="18" x="3" y="9"/><circle class="cls-3" cx="12" cy="15" r="2"/></g><g data-name="Layer 4" id="Layer_4"><path class="cls-4" d="M6,24H18a4,4,0,0,0,4-4V12a4,4,0,0,0-4-4V6A6,6,0,0,0,6,6V8a4,4,0,0,0-4,4v8A4,4,0,0,0,6,24ZM8,6a4,4,0,0,1,8,0V8H8ZM4,12a2,2,0,0,1,2-2H18a2,2,0,0,1,2,2v8a2,2,0,0,1-2,2H6a2,2,0,0,1-2-2Z"/><path class="cls-4" d="M11,17.816V19a1,1,0,0,0,2,0V17.816a3,3,0,1,0-2,0ZM12,14a1,1,0,1,1-1,1A1,1,0,0,1,12,14Z"/></g></svg>